# xmcd CD database file
#
# Track frame offsets:
#	150
#	13455
#	25483
#	38648
#	57950
#	76879
#	88515
#	107223
#	125655
#	138478
#	147093
#	167410
#	191278
#	205950
#	214920
#	236013
#	250688
#	273675
#
# Disc length: 3899 seconds
#
# Revision: 0
# Processed by: cddbd v1.5.1PL2 Copyright (c) Steve Scherf et al.
# Submitted via: CDex 1.51
#
DISCID=040f3912
DTITLE=モーツァルト - THE Best OF Opera [CD2]
DYEAR=1900
DGENRE=Opera
TTITLE0=魔笛：おいらは鳥刺し
TTITLE1=魔笛：層たちの行進
TTITLE2=魔笛：夜の女王のアリア
TTITLE3=魔笛：愛の喜びは露と消え
TTITLE4=魔笛：恋人か女房がいれば
TTITLE5=魔笛：パ・パ・パ・パパゲーノ
TTITLE6=フィガロの結婚：序曲
TTITLE7=フィガロの結婚：もう飛ぶまいぞ、この蝶々
TTITLE8=フィガロの結婚：恋とはどんなものかしら
TTITLE9=フィガロの結婚：なくしてしまった
TTITLE10=フィガロの結婚：ようやくその時が来た・・・いとしい人よ早く
TTITLE11=フィガロの結婚：誰か誰か、武器を
TTITLE12=ドン・ジョヴァンニ：お手をどうぞ
TTITLE13=ドン・ジョヴァンニ：セレナード
TTITLE14=ドン・ジョヴァンニ：晩餐の用意は出来た
TTITLE15=コジ・ファン・トゥッテ：風は穏やかに
TTITLE16=コジ・ファン・トゥッテ：僕らの恋人からの恋のそよ風は
TTITLE17=コジ・ファン・トゥッテ：女は１５にもなれば
EXTD=
EXTT0=
EXTT1=
EXTT2=
EXTT3=
EXTT4=
EXTT5=
EXTT6=
EXTT7=
EXTT8=
EXTT9=
EXTT10=
EXTT11=
EXTT12=
EXTT13=
EXTT14=
EXTT15=
EXTT16=
EXTT17=
PLAYORDER=
